<?xml version="1.0" encoding="UTF-8"?>
<svg width="20px" height="20px" viewBox="0 0 20 20" version="1.1" xmlns="http://www.w3.org/2000/svg" xmlns:xlink="http://www.w3.org/1999/xlink">
    <!-- Generator: Sketch 51 (57462) - http://www.bohemiancoding.com/sketch -->
    <title>save</title>
    <desc>Created with Sketch.</desc>
    <defs></defs>
    <g id="Page-1" stroke="none" stroke-width="1" fill="none" fill-rule="evenodd">
        <g id="save" transform="translate(1.000000, 1.000000)" fill-rule="nonzero" stroke="#5FB7D8" stroke-width="2">
            <path d="M14,0 L2,0 C0.89,0 0,0.9 0,2 L0,16 C0,17.1 0.89,18 2,18 L16,18 C17.1,18 18,17.1 18,16 L18,4 L14,0 Z M9,15 C7.34,15 6,13.66 6,12 C6,10.34 7.34,9 9,9 C10.66,9 12,10.34 12,12 C12,13.66 10.66,15 9,15 Z M10,5 L0,5 L0,2 C-1.3527075e-16,0.8954305 0.8954305,2.02906125e-16 2,0 L10,0 L10,5 Z" id="Shape"></path>
        </g>
    </g>
</svg>